<svg width="56" height="56" viewBox="0 0 56 56" fill="none" xmlns="http://www.w3.org/2000/svg">
<path d="M5.11879 13.0572C5.32958 10.9777 6.75824 9.39461 8.82291 9.0687C11.5768 8.63399 16.4171 8.16667 24.5 8.16667C32.5829 8.16667 37.4232 8.63399 40.1771 9.0687C42.2417 9.3946 43.6704 10.9777 43.8813 13.0572C44.1104 15.3187 44.3333 18.9456 44.3333 24.5C44.3333 30.0544 44.1104 33.6813 43.8813 35.9428C43.6704 38.0224 42.2417 39.6054 40.1771 39.9313C37.4232 40.366 32.5829 40.8333 24.5 40.8333C16.4171 40.8333 11.5769 40.366 8.82291 39.9313C6.75825 39.6054 5.32958 38.0224 5.11879 35.9428C4.88956 33.6813 4.66667 30.0544 4.66667 24.5C4.66667 18.9456 4.88956 15.3187 5.11879 13.0572Z" fill="#FFB321"/>
<path d="M9.82611 17.7873C10.0406 15.7379 11.4587 14.19 13.4916 13.853C16.3866 13.373 21.5866 12.8333 30.3333 12.8333C39.0801 12.8333 44.28 13.373 47.1751 13.853C49.208 14.19 50.626 15.7379 50.8405 17.7873C51.0881 20.1525 51.3333 24.0747 51.3333 30.3333C51.3333 36.5919 51.0881 40.5141 50.8405 42.8793C50.626 44.9288 49.208 46.4766 47.1751 46.8137C44.28 47.2936 39.0801 47.8333 30.3333 47.8333C21.5866 47.8333 16.3866 47.2936 13.4916 46.8137C11.4587 46.4766 10.0406 44.9288 9.82611 42.8793C9.57853 40.5141 9.33333 36.5919 9.33333 30.3333C9.33333 24.0747 9.57853 20.1525 9.82611 17.7873Z" fill="url(#paint0_linear_244_69)"/>
<path fill-rule="evenodd" clip-rule="evenodd" d="M9.33624 31.5C9.33432 31.1205 9.33333 30.7316 9.33333 30.3333C9.33333 26.9806 9.4037 24.2983 9.5071 22.1667H51.1595C51.263 24.2983 51.3333 26.9806 51.3333 30.3333C51.3333 30.7316 51.3323 31.1205 51.3304 31.5H9.33624Z" fill="#FFB321"/>
<path d="M44.3333 40.2698C44.3333 41.1202 43.7202 41.8352 42.8722 41.8985C42.1455 41.9526 41.1477 42 39.8788 42C38.7621 42 37.9604 41.9634 37.3947 41.9176C36.653 41.8577 36.1667 41.2424 36.1667 40.4983V38.8351C36.1667 38.091 36.653 37.4757 37.3947 37.4157C37.9604 37.37 38.7621 37.3333 39.8788 37.3333C41.1477 37.3333 42.1455 37.3807 42.8722 37.4348C43.7202 37.4982 44.3333 38.2131 44.3333 39.0635V40.2698Z" fill="#FFB321"/>
<defs>
<linearGradient id="paint0_linear_244_69" x1="9.33333" y1="12.8333" x2="26.449" y2="57.3918" gradientUnits="userSpaceOnUse">
<stop stop-color="#FFE49D"/>
<stop offset="0.380208" stop-color="#FFEDBD"/>
<stop offset="1" stop-color="#FFE49D"/>
</linearGradient>
</defs>
</svg>
