<svg width="56" height="56" viewBox="0 0 56 56" fill="none" xmlns="http://www.w3.org/2000/svg">
<path d="M28 51.3333C40.8866 51.3333 51.3333 40.8867 51.3333 28C51.3333 15.1134 40.8866 4.66667 28 4.66667C15.1133 4.66667 4.66666 15.1134 4.66666 28C4.66666 40.8867 15.1133 51.3333 28 51.3333Z" fill="url(#paint0_linear_244_78)"/>
<path fill-rule="evenodd" clip-rule="evenodd" d="M39.8934 18.1403C40.8409 18.8738 41.1171 20.277 40.5146 21.3585C35.8402 29.7493 31.5869 35.3323 29.0735 38.3206C27.7216 39.928 25.5479 40.1342 24.015 38.7317C21.8266 36.7295 18.6102 33.3302 15.5322 28.3788C14.9521 27.4457 15.0778 26.2016 15.8006 25.3947L17.654 23.3261C18.5169 22.3631 19.9352 22.3367 20.8054 23.2918C23.87 26.6558 26.2469 29.7061 26.2469 29.7061C26.2469 29.7061 29.7395 24.0401 35.1631 17.1703C35.9127 16.2208 37.2059 16.0602 38.1437 16.786L39.8934 18.1403Z" fill="#FFB321"/>
<defs>
<linearGradient id="paint0_linear_244_78" x1="4.66666" y1="4.66667" x2="30.5854" y2="60.8969" gradientUnits="userSpaceOnUse">
<stop stop-color="#FFE49D"/>
<stop offset="0.380208" stop-color="#FFEDBD"/>
<stop offset="1" stop-color="#FFE49D"/>
</linearGradient>
</defs>
</svg>
