<svg width="57" height="57" viewBox="0 0 57 57" fill="none" xmlns="http://www.w3.org/2000/svg">
<path d="M28.4253 51.5223C41.312 51.5223 51.7587 41.0756 51.7587 28.189C51.7587 15.3023 41.312 4.85564 28.4253 4.85564C15.5387 4.85564 5.09198 15.3023 5.09198 28.189C5.09198 41.0756 15.5387 51.5223 28.4253 51.5223Z" fill="url(#paint0_linear_244_118)"/>
<path d="M34.5377 17.1394C35.4719 16.2795 36.9011 16.3263 37.7945 17.2297L39.1369 18.5868C40.0303 19.4901 40.0767 20.9351 39.2262 21.8798C37.96 23.2861 35.9577 25.4724 33.4745 28.0562C36.0759 30.7556 38.1723 33.0439 39.4815 34.4982C40.332 35.4428 40.2858 36.8879 39.3924 37.7911L38.05 39.1483C37.1566 40.0516 35.7274 40.0984 34.7932 39.2386C33.3555 37.9154 31.0935 35.797 28.4253 33.1684C25.757 35.797 23.495 37.9154 22.0574 39.2386C21.1231 40.0984 19.6939 40.0516 18.8005 39.1483L17.4581 37.7911C16.5647 36.8879 16.5185 35.4428 17.369 34.4982C18.6782 33.0439 20.7746 30.7556 23.376 28.0562C20.8928 25.4724 18.8906 23.2861 17.6244 21.8798C16.7739 20.9351 16.8202 19.4901 17.7136 18.5868L19.056 17.2297C19.9494 16.3263 21.3786 16.2795 22.3129 17.1394C23.7045 18.4201 25.8682 20.4458 28.4253 22.9582C30.9824 20.4458 33.1461 18.4201 34.5377 17.1394Z" fill="#FFB321"/>
<defs>
<linearGradient id="paint0_linear_244_118" x1="5.09198" y1="4.85564" x2="31.0107" y2="61.0859" gradientUnits="userSpaceOnUse">
<stop stop-color="#FFE49D"/>
<stop offset="0.380208" stop-color="#FFEDBD"/>
<stop offset="1" stop-color="#FFE49D"/>
</linearGradient>
</defs>
</svg>
