<svg width="56" height="56" viewBox="0 0 56 56" fill="none" xmlns="http://www.w3.org/2000/svg">
<path d="M19.4938 52.3518C16.733 46.3152 17.0434 32.6673 17.0434 32.6673L47.1193 9.35156C46.2713 17.6202 32.9631 50.032 19.4938 52.3518Z" fill="url(#paint0_linear_244_61)"/>
<path d="M6.32849 26.8599C4.99408 25.6911 5.05007 23.8086 6.51455 22.8076C14.617 17.2689 37.3198 6.03213 49.1587 3.86593C51.0601 3.51802 52.6224 5.06163 52.4875 6.9899C51.6511 18.9455 47.2045 41.7662 43.2585 49.4671C42.5751 50.8009 40.9803 51.0778 39.6803 50.3322C36.6616 48.6009 30.4794 44.837 20.8626 37.9903C12.8654 32.2966 8.56549 28.8194 6.32849 26.8599Z" fill="url(#paint1_linear_244_61)"/>
<path d="M46.9443 9.3335C45.7778 8.16683 18.6269 30.2359 16.4543 34.797C16.4543 34.797 16.3637 51.8589 19.4936 52.3515C21.1869 52.3515 24.2927 43.3622 24.947 41.4107C25.0306 41.1613 25.1451 40.9416 25.3045 40.7323C32.1276 31.7823 48.0975 10.4867 46.9443 9.3335Z" fill="#FFB321"/>
<defs>
<linearGradient id="paint0_linear_244_61" x1="17.0329" y1="9.35156" x2="45.8931" y2="53.1597" gradientUnits="userSpaceOnUse">
<stop stop-color="#FFE49D"/>
<stop offset="0.380208" stop-color="#FFEDBD"/>
<stop offset="1" stop-color="#FFE49D"/>
</linearGradient>
<linearGradient id="paint1_linear_244_61" x1="5.36997" y1="3.8167" x2="31.3568" y2="60.4399" gradientUnits="userSpaceOnUse">
<stop stop-color="#FFE49D"/>
<stop offset="0.380208" stop-color="#FFEDBD"/>
<stop offset="1" stop-color="#FFE49D"/>
</linearGradient>
</defs>
</svg>
