<svg width="320" height="97" viewBox="0 0 320 97" fill="none" xmlns="http://www.w3.org/2000/svg">
<g filter="url(#filter0_i_141_64)">
<path d="M18.3545 7.98064C19.3126 3.33389 23.404 0 28.1485 0H307.728C314.062 0 318.801 5.81516 317.522 12.0194L301.645 89.0194C300.687 93.6661 296.596 97 291.852 97H12.2722C5.9375 97 1.199 91.1848 2.47822 84.9806L18.3545 7.98064Z" fill="url(#paint0_linear_141_64)"/>
</g>
<path d="M22.6344 30.045L24.8004 20.5201C25.0697 20.5813 25.3376 20.4127 25.3988 20.1434L26.5927 14.8934C26.8354 13.8264 27.252 12.8363 27.8084 11.95C27.953 11.7196 27.8868 11.4168 27.6613 11.2675C28.7643 9.69186 30.3026 8.46409 32.0836 7.73796C32.1793 7.9909 32.4598 8.12265 32.7165 8.03273C33.7042 7.68671 34.7619 7.5 35.8562 7.5H40.9065C41.1826 7.5 41.4065 7.27614 41.4065 7H50.507C50.507 7.27614 50.7309 7.5 51.007 7.5H61.1076C61.3837 7.5 61.6076 7.27614 61.6076 7H70.7081C70.7081 7.27614 70.932 7.5 71.2081 7.5H81.3087C81.5848 7.5 81.8087 7.27614 81.8087 7H90.9092C90.9092 7.27614 91.1331 7.5 91.4092 7.5H101.51C101.786 7.5 102.01 7.27614 102.01 7H111.11C111.11 7.27614 111.334 7.5 111.61 7.5H121.711C121.987 7.5 122.211 7.27614 122.211 7H131.311C131.311 7.27614 131.535 7.5 131.811 7.5H141.912C142.188 7.5 142.412 7.27614 142.412 7H151.513C151.513 7.27614 151.736 7.5 152.013 7.5H162.113C162.389 7.5 162.613 7.27614 162.613 7H171.714C171.714 7.27614 171.938 7.5 172.214 7.5H182.314C182.59 7.5 182.814 7.27614 182.814 7H191.915C191.915 7.27614 192.139 7.5 192.415 7.5H202.515C202.791 7.5 203.015 7.27614 203.015 7H212.116C212.116 7.27614 212.34 7.5 212.616 7.5H222.716C222.993 7.5 223.216 7.27614 223.216 7H232.317C232.317 7.27614 232.541 7.5 232.817 7.5H242.918C243.194 7.5 243.418 7.27614 243.418 7H252.518C252.518 7.27614 252.742 7.5 253.018 7.5H263.119C263.395 7.5 263.619 7.27614 263.619 7H272.719C272.719 7.27614 272.943 7.5 273.219 7.5H283.32C283.596 7.5 283.82 7.27614 283.82 7H292.92C292.92 7.27614 293.144 7.5 293.42 7.5H298.471C299.962 7.5 301.356 7.83799 302.593 8.43455C302.838 8.55267 303.131 8.45325 303.255 8.21269C305.611 9.4993 307.368 11.7007 308.1 14.2833C307.838 14.3504 307.676 14.6146 307.737 14.8796C308.044 16.2181 308.065 17.6527 307.734 19.1066L306.54 24.3566C306.479 24.6259 306.648 24.8938 306.917 24.955L304.751 34.4799C304.482 34.4187 304.214 34.5873 304.152 34.8566L301.765 45.3566C301.703 45.6259 301.872 45.8938 302.141 45.955L299.975 55.4799C299.706 55.4187 299.438 55.5873 299.377 55.8566L296.989 66.3566C296.928 66.6259 297.096 66.8938 297.366 66.955L295.2 76.4799C294.93 76.4187 294.662 76.5873 294.601 76.8566L293.407 82.1066C293.165 83.1736 292.748 84.1637 292.192 85.05C292.047 85.2803 292.113 85.5832 292.339 85.7325C291.236 87.3081 289.697 88.5359 287.916 89.262C287.821 89.0091 287.54 88.8773 287.284 88.9673C286.296 89.3133 285.238 89.5 284.144 89.5H279.094C278.817 89.5 278.594 89.7239 278.594 90H269.493C269.493 89.7239 269.269 89.5 268.993 89.5H258.892C258.616 89.5 258.392 89.7239 258.392 90H249.292C249.292 89.7239 249.068 89.5 248.792 89.5H238.691C238.415 89.5 238.191 89.7239 238.191 90H229.091C229.091 89.7239 228.867 89.5 228.591 89.5H218.49C218.214 89.5 217.99 89.7239 217.99 90H208.89C208.89 89.7239 208.666 89.5 208.39 89.5H198.289C198.013 89.5 197.789 89.7239 197.789 90H188.689C188.689 89.7239 188.465 89.5 188.189 89.5H178.088C177.812 89.5 177.588 89.7239 177.588 90H168.487C168.487 89.7239 168.264 89.5 167.987 89.5H157.887C157.611 89.5 157.387 89.7239 157.387 90H148.286C148.286 89.7239 148.062 89.5 147.786 89.5H137.686C137.41 89.5 137.186 89.7239 137.186 90H128.085C128.085 89.7239 127.861 89.5 127.585 89.5H117.485C117.209 89.5 116.985 89.7239 116.985 90H107.884C107.884 89.7239 107.66 89.5 107.384 89.5H97.2836C97.0074 89.5 96.7836 89.7239 96.7836 90H87.683C87.683 89.7239 87.4592 89.5 87.183 89.5H77.0825C76.8063 89.5 76.5825 89.7239 76.5825 90H67.4819C67.4819 89.7239 67.258 89.5 66.9819 89.5H56.8814C56.6052 89.5 56.3814 89.7239 56.3814 90H47.2808C47.2808 89.7239 47.0569 89.5 46.7808 89.5H36.6802C36.4041 89.5 36.1802 89.7239 36.1802 90H27.0797C27.0797 89.7239 26.8558 89.5 26.5797 89.5H21.5294C20.0384 89.5 18.644 89.162 17.407 88.5654C17.1621 88.4473 16.8685 88.5467 16.7451 88.7873C14.3891 87.5007 12.6321 85.2993 11.9 82.7167C12.1619 82.6496 12.3239 82.3854 12.2631 82.1204C11.9557 80.7819 11.9353 79.3473 12.2659 77.8934L13.4598 72.6434C13.5211 72.3741 13.3524 72.1062 13.0831 72.045L15.2492 62.5201C15.5185 62.5813 15.7864 62.4127 15.8476 62.1434L18.2354 51.6434C18.2967 51.3741 18.128 51.1062 17.8588 51.045L20.0248 41.5201C20.2941 41.5813 20.562 41.4127 20.6232 41.1434L23.011 30.6434C23.0723 30.3741 22.9036 30.1062 22.6344 30.045Z" stroke="#D59E83" stroke-linecap="round" stroke-dasharray="10 10"/>
<defs>
<filter id="filter0_i_141_64" x="2.26868" y="0" width="315.463" height="97" filterUnits="userSpaceOnUse" color-interpolation-filters="sRGB">
<feFlood flood-opacity="0" result="BackgroundImageFix"/>
<feBlend mode="normal" in="SourceGraphic" in2="BackgroundImageFix" result="shape"/>
<feColorMatrix in="SourceAlpha" type="matrix" values="0 0 0 0 0 0 0 0 0 0 0 0 0 0 0 0 0 0 127 0" result="hardAlpha"/>
<feOffset/>
<feGaussianBlur stdDeviation="25"/>
<feComposite in2="hardAlpha" operator="arithmetic" k2="-1" k3="1"/>
<feColorMatrix type="matrix" values="0 0 0 0 1 0 0 0 0 1 0 0 0 0 1 0 0 0 0.3 0"/>
<feBlend mode="normal" in2="shape" result="effect1_innerShadow_141_64"/>
</filter>
<linearGradient id="paint0_linear_141_64" x1="0" y1="0" x2="320" y2="97" gradientUnits="userSpaceOnUse">
<stop stop-color="#FFD976"/>
<stop offset="0.319472" stop-color="#FFEBB8"/>
<stop offset="1" stop-color="#FFDC84"/>
</linearGradient>
</defs>
</svg>
