<svg width="21" height="20" viewBox="0 0 21 20" fill="none" xmlns="http://www.w3.org/2000/svg">
<path d="M16.1719 12.2235C15.9236 12.464 15.8096 12.8119 15.8661 13.1531L16.7181 17.8681C16.79 18.2677 16.6213 18.6721 16.2869 18.9031C15.9591 19.1427 15.5231 19.1714 15.1656 18.9797L10.9211 16.766C10.7736 16.6874 10.6097 16.6452 10.442 16.6405H10.1823C10.0922 16.6539 10.004 16.6826 9.92352 16.7267L5.6781 18.951C5.46822 19.0564 5.23056 19.0938 4.99768 19.0564C4.43035 18.9491 4.05181 18.4086 4.14477 17.8384L4.99768 13.1234C5.05422 12.7793 4.94018 12.4295 4.69197 12.1852L1.23143 8.831C0.942016 8.5502 0.841391 8.12854 0.973641 7.74808C1.10206 7.36858 1.42981 7.09162 1.8256 7.02933L6.58852 6.33837C6.95077 6.301 7.26893 6.08058 7.43185 5.75475L9.5306 1.45183C9.58043 1.356 9.64464 1.26783 9.72227 1.19308L9.80852 1.126C9.85356 1.07616 9.90531 1.03495 9.96281 1.00141L10.0673 0.963079L10.2302 0.895996H10.6336C10.994 0.933371 11.3112 1.149 11.477 1.471L13.6035 5.75475C13.7569 6.06812 14.0549 6.28566 14.3989 6.33837L19.1618 7.02933C19.5644 7.08683 19.9007 7.36475 20.0339 7.74808C20.1595 8.13237 20.0512 8.55404 19.756 8.831L16.1719 12.2235Z" fill="#FFB321"/>
</svg>
