<svg width="48" height="48" viewBox="0 0 48 48" fill="none" xmlns="http://www.w3.org/2000/svg">
<path d="M31.1022 25.5986C30.7914 25.8998 30.6486 26.3354 30.7194 26.7626L31.7862 32.6665C31.8762 33.167 31.665 33.6734 31.2462 33.9626C30.8358 34.2626 30.2898 34.2986 29.8422 34.0586L24.5274 31.2866C24.3426 31.1882 24.1374 31.1354 23.9274 31.1294H23.6022C23.4894 31.1462 23.379 31.1821 23.2782 31.2374L17.9622 34.0226C17.6994 34.1546 17.4018 34.2014 17.1102 34.1546C16.3998 34.0202 15.9258 33.3434 16.0422 32.6294L17.1102 26.7254C17.181 26.2946 17.0382 25.8566 16.7274 25.5506L12.3942 21.3506C12.0318 20.999 11.9058 20.471 12.0714 19.9946C12.2322 19.5194 12.6426 19.1726 13.1382 19.0946L19.1022 18.2294C19.5558 18.1826 19.9542 17.9066 20.1582 17.4986L22.7862 12.1106C22.8486 11.9906 22.929 11.8802 23.0262 11.7866L23.1342 11.7026C23.1906 11.6402 23.2554 11.5886 23.3274 11.5466L23.4582 11.4986L23.6622 11.4146H24.1674C24.6186 11.4614 25.0158 11.7314 25.2234 12.1346L27.8862 17.4986C28.0782 17.891 28.4514 18.1634 28.8822 18.2294L34.8462 19.0946C35.3502 19.1666 35.7714 19.5146 35.9382 19.9946C36.0954 20.4758 35.9598 21.0038 35.5902 21.3506L31.1022 25.5986Z" fill="#FFB321"/>
<circle cx="24" cy="24" r="24" fill="#FFB321" fill-opacity="0.2"/>
<circle cx="24" cy="24" r="23.5" stroke="#FFB321" stroke-opacity="0.3"/>
</svg>
