<svg width="51" height="50" viewBox="0 0 51 50" fill="none" xmlns="http://www.w3.org/2000/svg">
<path d="M14.8747 23.3185C20.2444 20.9196 23.8242 19.338 25.6141 18.5739C30.7306 16.3919 31.7925 16.013 32.486 16.0001C32.6385 15.9976 32.9781 16.0363 33.1997 16.22C33.3838 16.3749 33.4356 16.5845 33.4615 16.7316C33.4845 16.8786 33.5162 17.2136 33.4903 17.4751C33.214 20.4618 32.0141 27.7098 31.404 31.0552C31.1479 32.4707 30.6385 32.9452 30.1465 32.9916C29.076 33.0925 28.2645 32.2667 27.2285 31.5705C25.6084 30.4806 24.6933 29.8023 23.1192 28.739C21.3005 27.51 22.4804 26.8344 23.5163 25.7306C23.7868 25.4417 28.5004 21.0456 28.5896 20.6469C28.6012 20.597 28.6127 20.4111 28.5033 20.3131C28.3968 20.2148 28.2386 20.2485 28.1235 20.275C27.9594 20.3128 25.3724 22.0683 20.3538 25.5411C19.62 26.0588 18.9552 26.3112 18.3567 26.2979C17.7006 26.2834 16.4344 25.9166 15.4934 25.6031C14.3423 25.2186 13.4244 25.0152 13.5049 24.3621C13.5452 24.0221 14.0028 23.6741 14.8747 23.3185Z" fill="white"/>
</svg>
